<svg width="486" height="499" viewBox="0 0 486 499" fill="none" xmlns="http://www.w3.org/2000/svg">
<path d="M51.2229 382.109C51.2229 352.431 75.2818 328.372 104.96 328.372C134.638 328.372 158.697 352.431 158.697 382.109C158.697 382.937 159.368 383.609 160.197 383.609C161.025 383.609 161.697 382.937 161.697 382.109C161.697 350.774 136.295 325.372 104.96 325.372C73.6249 325.372 48.2229 350.774 48.2229 382.109C48.2229 385.961 48.6071 389.726 49.3396 393.365C49.5031 394.177 50.294 394.703 51.1061 394.539C51.9183 394.376 52.4441 393.585 52.2806 392.773C51.5871 389.327 51.2229 385.761 51.2229 382.109Z" fill="url(#paint0_linear_33_14)"/>
<path fill-rule="evenodd" clip-rule="evenodd" d="M111.535 307.837C69.3053 307.837 35.071 342.071 35.071 384.301C35.071 426.532 69.3053 460.766 111.535 460.766C153.766 460.766 188 426.532 188 384.301C188 342.071 153.766 307.837 111.535 307.837ZM38.071 384.301C38.071 343.728 70.9622 310.837 111.535 310.837C152.109 310.837 185 343.728 185 384.301C185 424.875 152.109 457.766 111.535 457.766C70.9622 457.766 38.071 424.875 38.071 384.301Z" fill="url(#paint1_linear_33_14)"/>
<path fill-rule="evenodd" clip-rule="evenodd" d="M19.2893 383.863C19.2893 332.674 60.7857 291.178 111.974 291.178C163.163 291.178 204.659 332.674 204.659 383.863C204.659 435.051 163.163 476.548 111.974 476.548C60.7857 476.548 19.2893 435.051 19.2893 383.863ZM111.974 294.178C62.4426 294.178 22.2893 334.331 22.2893 383.863C22.2893 433.394 62.4426 473.548 111.974 473.548C161.506 473.548 201.659 433.394 201.659 383.863C201.659 334.331 161.506 294.178 111.974 294.178Z" fill="url(#paint2_linear_33_14)"/>
<path fill-rule="evenodd" clip-rule="evenodd" d="M115.481 267.504C51.7026 267.504 0 319.207 0 382.985C0 446.763 51.7026 498.466 115.481 498.466C179.259 498.466 230.962 446.763 230.962 382.985C230.962 319.207 179.259 267.504 115.481 267.504ZM3 382.985C3 320.863 53.3595 270.504 115.481 270.504C177.603 270.504 227.962 320.863 227.962 382.985C227.962 445.107 177.603 495.466 115.481 495.466C53.3595 495.466 3 445.107 3 382.985Z" fill="url(#paint3_linear_33_14)"/>
<path d="M464.303 1.5C464.303 0.671573 463.632 0 462.803 0C461.975 0 461.303 0.671573 461.303 1.5L461.303 28.3104C461.303 29.1389 461.975 29.8104 462.803 29.8104C463.632 29.8104 464.303 29.1389 464.303 28.3104L464.303 1.5Z" fill="url(#paint4_linear_33_14)"/>
<path d="M485.346 1.5C485.346 0.671573 484.674 0 483.846 0C483.018 0 482.346 0.671573 482.346 1.5L482.346 99.3294C482.346 100.158 483.018 100.829 483.846 100.829C484.674 100.829 485.346 100.158 485.346 99.3294L485.346 1.5Z" fill="url(#paint5_linear_33_14)"/>
<path d="M462.803 71.0195C463.632 71.0195 464.303 71.6911 464.303 72.5195L464.303 99.33C464.303 100.158 463.632 100.83 462.803 100.83C461.975 100.83 461.303 100.158 461.303 99.33L461.303 72.5195C461.303 71.6911 461.975 71.0195 462.803 71.0195Z" fill="url(#paint6_linear_33_14)"/>
<path d="M463.31 66.1279C464.139 66.1279 464.81 65.4564 464.81 64.6279C464.81 63.7995 464.139 63.1279 463.31 63.1279L436.5 63.1279C435.672 63.1279 435 63.7995 435 64.6279C435 65.4564 435.672 66.1279 436.5 66.1279H463.31Z" fill="url(#paint7_linear_33_14)"/>
<path d="M476.832 0C477.66 0 478.332 0.671573 478.332 1.5L478.332 99.3294C478.332 100.158 477.66 100.829 476.832 100.829C476.003 100.829 475.332 100.158 475.332 99.3294L475.332 1.5C475.332 0.671573 476.003 0 476.832 0Z" fill="url(#paint8_linear_33_14)"/>
<path d="M457.289 1.5C457.289 0.671573 456.618 0 455.789 0C454.961 0 454.289 0.671573 454.289 1.5L454.289 28.3104C454.289 29.1389 454.961 29.8104 455.789 29.8104C456.618 29.8104 457.289 29.1389 457.289 28.3104L457.289 1.5Z" fill="url(#paint9_linear_33_14)"/>
<path d="M455.789 71.0195C456.618 71.0195 457.289 71.6911 457.289 72.5195L457.289 99.33C457.289 100.158 456.618 100.83 455.789 100.83C454.961 100.83 454.289 100.158 454.289 99.33L454.289 72.5195C454.289 71.6911 454.961 71.0195 455.789 71.0195Z" fill="url(#paint10_linear_33_14)"/>
<path d="M463.31 59.1133C464.139 59.1133 464.81 58.4417 464.81 57.6133C464.81 56.7849 464.139 56.1133 463.31 56.1133L436.5 56.1133C435.672 56.1133 435 56.7849 435 57.6133C435 58.4417 435.672 59.1133 436.5 59.1133L463.31 59.1133Z" fill="url(#paint11_linear_33_14)"/>
<path d="M464.81 43.5859C464.81 44.4144 464.139 45.0859 463.31 45.0859L436.5 45.0859C435.672 45.0859 435 44.4144 435 43.5859C435 42.7575 435.672 42.0859 436.5 42.0859L463.31 42.0859C464.139 42.0859 464.81 42.7575 464.81 43.5859Z" fill="url(#paint12_linear_33_14)"/>
<path d="M471.318 1.5C471.318 0.671573 470.646 0 469.818 0C468.989 0 468.318 0.671573 468.318 1.5L468.318 99.3294C468.318 100.158 468.989 100.829 469.818 100.829C470.646 100.829 471.318 100.158 471.318 99.3294L471.318 1.5Z" fill="url(#paint13_linear_33_14)"/>
<path d="M448.775 0C449.603 0 450.275 0.671573 450.275 1.5L450.275 28.3104C450.275 29.1389 449.603 29.8104 448.775 29.8104C447.946 29.8104 447.275 29.1389 447.275 28.3104L447.275 1.5C447.275 0.671573 447.946 0 448.775 0Z" fill="url(#paint14_linear_33_14)"/>
<path d="M450.275 72.5195C450.275 71.6911 449.603 71.0195 448.775 71.0195C447.946 71.0195 447.275 71.6911 447.275 72.5195L447.275 99.33C447.275 100.158 447.946 100.83 448.775 100.83C449.603 100.83 450.275 100.158 450.275 99.33L450.275 72.5195Z" fill="url(#paint15_linear_33_14)"/>
<path d="M464.81 50.5996C464.81 51.428 464.139 52.0996 463.31 52.0996L436.5 52.0996C435.672 52.0996 435 51.428 435 50.5996C435 49.7712 435.672 49.0996 436.5 49.0996L463.31 49.0996C464.139 49.0996 464.81 49.7712 464.81 50.5996Z" fill="url(#paint16_linear_33_14)"/>
<path d="M463.31 38.0713C464.139 38.0713 464.81 37.3997 464.81 36.5713C464.81 35.7429 464.139 35.0713 463.31 35.0713L436.5 35.0713C435.672 35.0713 435 35.7429 435 36.5713C435 37.3997 435.672 38.0713 436.5 38.0713L463.31 38.0713Z" fill="url(#paint17_linear_33_14)"/>
<defs>
<linearGradient id="paint0_linear_33_14" x1="115.481" y1="267.504" x2="115.481" y2="498.466" gradientUnits="userSpaceOnUse">
<stop stop-opacity="0.84"/>
<stop offset="0.954425" stop-color="#7C7C7C" stop-opacity="0"/>
</linearGradient>
<linearGradient id="paint1_linear_33_14" x1="115.481" y1="267.504" x2="115.481" y2="498.466" gradientUnits="userSpaceOnUse">
<stop stop-opacity="0.84"/>
<stop offset="0.954425" stop-color="#7C7C7C" stop-opacity="0"/>
</linearGradient>
<linearGradient id="paint2_linear_33_14" x1="115.481" y1="267.504" x2="115.481" y2="498.466" gradientUnits="userSpaceOnUse">
<stop stop-opacity="0.84"/>
<stop offset="0.954425" stop-color="#7C7C7C" stop-opacity="0"/>
</linearGradient>
<linearGradient id="paint3_linear_33_14" x1="115.481" y1="267.504" x2="115.481" y2="498.466" gradientUnits="userSpaceOnUse">
<stop stop-opacity="0.84"/>
<stop offset="0.954425" stop-color="#7C7C7C" stop-opacity="0"/>
</linearGradient>
<linearGradient id="paint4_linear_33_14" x1="481.351" y1="25.3418" x2="459.851" y2="86.3418" gradientUnits="userSpaceOnUse">
<stop stop-color="#0F0F0F"/>
<stop offset="1" stop-color="#8E8E8E" stop-opacity="0"/>
</linearGradient>
<linearGradient id="paint5_linear_33_14" x1="481.351" y1="25.3418" x2="459.851" y2="86.3418" gradientUnits="userSpaceOnUse">
<stop stop-color="#0F0F0F"/>
<stop offset="1" stop-color="#8E8E8E" stop-opacity="0"/>
</linearGradient>
<linearGradient id="paint6_linear_33_14" x1="481.351" y1="25.3418" x2="459.851" y2="86.3418" gradientUnits="userSpaceOnUse">
<stop stop-color="#0F0F0F"/>
<stop offset="1" stop-color="#8E8E8E" stop-opacity="0"/>
</linearGradient>
<linearGradient id="paint7_linear_33_14" x1="481.351" y1="25.3418" x2="459.851" y2="86.3418" gradientUnits="userSpaceOnUse">
<stop stop-color="#0F0F0F"/>
<stop offset="1" stop-color="#8E8E8E" stop-opacity="0"/>
</linearGradient>
<linearGradient id="paint8_linear_33_14" x1="481.351" y1="25.3418" x2="459.851" y2="86.3418" gradientUnits="userSpaceOnUse">
<stop stop-color="#0F0F0F"/>
<stop offset="1" stop-color="#8E8E8E" stop-opacity="0"/>
</linearGradient>
<linearGradient id="paint9_linear_33_14" x1="481.351" y1="25.3418" x2="459.851" y2="86.3418" gradientUnits="userSpaceOnUse">
<stop stop-color="#0F0F0F"/>
<stop offset="1" stop-color="#8E8E8E" stop-opacity="0"/>
</linearGradient>
<linearGradient id="paint10_linear_33_14" x1="481.351" y1="25.3418" x2="459.851" y2="86.3418" gradientUnits="userSpaceOnUse">
<stop stop-color="#0F0F0F"/>
<stop offset="1" stop-color="#8E8E8E" stop-opacity="0"/>
</linearGradient>
<linearGradient id="paint11_linear_33_14" x1="481.351" y1="25.3418" x2="459.851" y2="86.3418" gradientUnits="userSpaceOnUse">
<stop stop-color="#0F0F0F"/>
<stop offset="1" stop-color="#8E8E8E" stop-opacity="0"/>
</linearGradient>
<linearGradient id="paint12_linear_33_14" x1="481.351" y1="25.3418" x2="459.851" y2="86.3418" gradientUnits="userSpaceOnUse">
<stop stop-color="#0F0F0F"/>
<stop offset="1" stop-color="#8E8E8E" stop-opacity="0"/>
</linearGradient>
<linearGradient id="paint13_linear_33_14" x1="481.351" y1="25.3418" x2="459.851" y2="86.3418" gradientUnits="userSpaceOnUse">
<stop stop-color="#0F0F0F"/>
<stop offset="1" stop-color="#8E8E8E" stop-opacity="0"/>
</linearGradient>
<linearGradient id="paint14_linear_33_14" x1="481.351" y1="25.3418" x2="459.851" y2="86.3418" gradientUnits="userSpaceOnUse">
<stop stop-color="#0F0F0F"/>
<stop offset="1" stop-color="#8E8E8E" stop-opacity="0"/>
</linearGradient>
<linearGradient id="paint15_linear_33_14" x1="481.351" y1="25.3418" x2="459.851" y2="86.3418" gradientUnits="userSpaceOnUse">
<stop stop-color="#0F0F0F"/>
<stop offset="1" stop-color="#8E8E8E" stop-opacity="0"/>
</linearGradient>
<linearGradient id="paint16_linear_33_14" x1="481.351" y1="25.3418" x2="459.851" y2="86.3418" gradientUnits="userSpaceOnUse">
<stop stop-color="#0F0F0F"/>
<stop offset="1" stop-color="#8E8E8E" stop-opacity="0"/>
</linearGradient>
<linearGradient id="paint17_linear_33_14" x1="481.351" y1="25.3418" x2="459.851" y2="86.3418" gradientUnits="userSpaceOnUse">
<stop stop-color="#0F0F0F"/>
<stop offset="1" stop-color="#8E8E8E" stop-opacity="0"/>
</linearGradient>
</defs>
</svg>
