<svg width="26" height="26" viewBox="0 0 26 26" fill="none" xmlns="http://www.w3.org/2000/svg">
<path d="M19 1H7C3.68629 1 1 3.68629 1 7V19C1 22.3137 3.68629 25 7 25H19C22.3137 25 25 22.3137 25 19V7C25 3.68629 22.3137 1 19 1Z" stroke="#0A0A0A" stroke-width="2" stroke-linecap="round" stroke-linejoin="round"/>
<path d="M19.6 6.40002H19.612M17.8 12.244C17.9481 13.2427 17.7775 14.2627 17.3125 15.1588C16.8475 16.055 16.1118 16.7817 15.21 17.2356C14.3081 17.6895 13.2861 17.8475 12.2893 17.6871C11.2926 17.5267 10.3717 17.0561 9.65781 16.3422C8.9439 15.6283 8.47328 14.7075 8.31288 13.7107C8.15248 12.7139 8.31048 11.6919 8.76439 10.7901C9.21831 9.88825 9.94502 9.15251 10.8412 8.68751C11.7373 8.22252 12.7573 8.05193 13.756 8.20002C14.7747 8.35109 15.7178 8.82578 16.446 9.55399C17.1742 10.2822 17.6489 11.2253 17.8 12.244Z" stroke="black" stroke-width="2" stroke-linecap="round" stroke-linejoin="round"/>
</svg>
