<svg width="35" height="25" viewBox="0 0 35 25" fill="none" xmlns="http://www.w3.org/2000/svg">
<path fill-rule="evenodd" clip-rule="evenodd" d="M14.7748 6.34334C14.5827 6.23258 14.3634 6.17277 14.1393 6.17002C13.9151 6.16727 13.6943 6.22168 13.4993 6.32768C13.3042 6.43369 13.142 6.5875 13.0291 6.7734C12.9162 6.95931 12.8567 7.17066 12.8567 7.38586V17.1139C12.8567 17.3291 12.9162 17.5405 13.0291 17.7264C13.142 17.9123 13.3042 18.0661 13.4993 18.1721C13.6943 18.2781 13.9151 18.3325 14.1393 18.3298C14.3634 18.327 14.5827 18.2672 14.7748 18.1564L23.2175 13.2924C23.4049 13.1844 23.56 13.0315 23.6677 12.8489C23.7754 12.6662 23.832 12.4598 23.832 12.2499C23.832 12.04 23.7754 11.8336 23.6677 11.6509C23.56 11.4682 23.4049 11.3154 23.2175 11.2074L14.7748 6.34334ZM20.1038 12.2499L15.3895 14.9656V9.53414L20.1038 12.2499Z" fill="black"/>
<path fill-rule="evenodd" clip-rule="evenodd" d="M25.9934 0.318481C20.3399 -0.10616 14.6604 -0.10616 9.00686 0.318481L5.22288 0.603837C4.1048 0.687525 3.04804 1.12806 2.22092 1.85528C1.3938 2.5825 0.843896 3.55457 0.658804 4.61666C-0.219601 9.67057 -0.219601 14.8293 0.658804 19.8832C0.843896 20.9453 1.3938 21.9174 2.22092 22.6446C3.04804 23.3718 4.1048 23.8124 5.22288 23.8961L9.00518 24.1814C14.66 24.6062 20.3402 24.6062 25.9951 24.1814L29.7774 23.8961C30.8955 23.8124 31.9522 23.3718 32.7794 22.6446C33.6065 21.9174 34.1564 20.9453 34.3415 19.8832C35.2195 14.8295 35.2195 9.67039 34.3415 4.61666C34.1564 3.55457 33.6065 2.5825 32.7794 1.85528C31.9522 1.12806 30.8955 0.687525 29.7774 0.603837L25.9934 0.318481ZM9.20442 2.74401C14.7276 2.32908 20.2761 2.32908 25.7992 2.74401L29.5815 3.02775C30.723 3.11368 31.6567 3.9357 31.8442 5.01875C32.6792 9.80621 32.6792 14.6937 31.8442 19.4811C31.7527 20.0079 31.4802 20.4902 31.0702 20.851C30.6601 21.2119 30.136 21.4305 29.5815 21.4721L25.7992 21.7559C20.2761 22.1708 14.7276 22.1708 9.20442 21.7559L5.42213 21.4721C4.86761 21.4305 4.34356 21.2119 3.93349 20.851C3.52343 20.4902 3.25096 20.0079 3.15951 19.4811C2.32445 14.6937 2.32445 9.80621 3.15951 5.01875C3.25096 4.49194 3.52343 4.00969 3.93349 3.64885C4.34356 3.28801 4.86761 3.06936 5.42213 3.02775L9.20442 2.74401Z" fill="black"/>
</svg>
